{
  "accessors": [
    {
      "bufferView": 2,
      "componentType": 5126,
      "count": 65532,
      "max": [
        9508.5400390625,
        2372.0,
        8160.5859375
      ],
      "min": [
        -9508.5400390625,
        0.0,
        -8160.5859375
      ],
      "type": "VEC3"
    },
    {
      "bufferView": 2,
      "byteOffset": 786384,
      "componentType": 5126,
      "count": 65532,
      "max": [
        0.9517818689346313,
        1.0,
        0.8117634654045105
      ],
      "min": [
        -0.8621585369110107,
        0.3026551306247711,
        -0.8747816681861877
      ],
      "type": "VEC3"
    },
    {
      "bufferView": 1,
      "componentType": 5126,
      "count": 65532,
      "max": [
        1.0,
        1.0
      ],
      "min": [
        0.0,
        0.0
      ],
      "type": "VEC2"
    },
    {
      "bufferView": 0,
      "componentType": 5125,
      "count": 386802,
      "type": "SCALAR"
    },
    {
      "bufferView": 2,
      "byteOffset": 1572768,
      "componentType": 5126,
      "count": 65532,
      "max": [
        9477.6181640625,
        3046.0,
        8160.5859375
      ],
      "min": [
        -9508.5400390625,
        24.0,
        -4369.7734375
      ],
      "type": "VEC3"
    },
    {
      "bufferView": 2,
      "byteOffset": 2359152,
      "componentType": 5126,
      "count": 65532,
      "max": [
        0.9236230254173279,
        1.0,
        0.9030802249908447
      ],
      "min": [
        -0.8766642808914185,
        0.2810467481613159,
        -0.9559400081634521
      ],
      "type": "VEC3"
    },
    {
      "bufferView": 1,
      "byteOffset": 524256,
      "componentType": 5126,
      "count": 65532,
      "max": [
        0.9983739852905273,
        1.0
      ],
      "min": [
        0.0,
        0.2322635054588318
      ],
      "type": "VEC2"
    },
    {
      "bufferView": 0,
      "byteOffset": 1547208,
      "componentType": 5125,
      "count": 387423,
      "type": "SCALAR"
    },
    {
      "bufferView": 2,
      "byteOffset": 3145536,
      "componentType": 5126,
      "count": 65532,
      "max": [
        9446.6953125,
        2506.0,
        8160.5859375
      ],
      "min": [
        -9508.5400390625,
        74.0,
        -616.5855102539063
      ],
      "type": "VEC3"
    },
    {
      "bufferView": 2,
      "byteOffset": 3931920,
      "componentType": 5126,
      "count": 65532,
      "max": [
        0.8936102390289307,
        1.0,
        0.8999925255775452
      ],
      "min": [
        -0.9148288369178772,
        0.3266867995262146,
        -0.854394257068634
      ],
      "type": "VEC3"
    },
    {
      "bufferView": 1,
      "byteOffset": 1048512,
      "componentType": 5126,
      "count": 65532,
      "max": [
        0.9967479109764099,
        1.0
      ],
      "min": [
        0.0,
        0.46222174167633057
      ],
      "type": "VEC2"
    },
    {
      "bufferView": 0,
      "byteOffset": 3096900,
      "componentType": 5125,
      "count": 388053,
      "type": "SCALAR"
    },
    {
      "bufferView": 2,
      "byteOffset": 4718304,
      "componentType": 5126,
      "count": 65532,
      "max": [
        9415.7734375,
        2792.0,
        8160.5859375
      ],
      "min": [
        -9508.5400390625,
        94.0,
        3208.27783203125
      ],
      "type": "VEC3"
    },
    {
      "bufferView": 2,
      "byteOffset": 5504688,
      "componentType": 5126,
      "count": 65532,
      "max": [
        0.9086498618125916,
        1.0,
        0.8864244818687439
      ],
      "min": [
        -0.9373840093612671,
        0.34048497676849365,
        -0.8841986656188965
      ],
      "type": "VEC3"
    },
    {
      "bufferView": 1,
      "byteOffset": 1572768,
      "componentType": 5126,
      "count": 65532,
      "max": [
        0.9951218962669373,
        1.0
      ],
      "min": [
        0.0,
        0.6965715289115906
      ],
      "type": "VEC2"
    },
    {
      "bufferView": 0,
      "byteOffset": 4649112,
      "componentType": 5125,
      "count": 388689,
      "type": "SCALAR"
    },
    {
      "bufferView": 2,
      "byteOffset": 6291072,
      "componentType": 5126,
      "count": 17669,
      "max": [
        9384.8515625,
        1176.0,
        8160.5859375
      ],
      "min": [
        -9508.5400390625,
        194.0,
        -4369.7734375
      ],
      "type": "VEC3"
    },
    {
      "bufferView": 2,
      "byteOffset": 6503100,
      "componentType": 5126,
      "count": 17669,
      "max": [
        0.8383290767669678,
        1.0,
        0.819975733757019
      ],
      "min": [
        -0.8641281723976135,
        0.4639178216457367,
        -0.8067530989646912
      ],
      "type": "VEC3"
    },
    {
      "bufferView": 1,
      "byteOffset": 2097024,
      "componentType": 5126,
      "count": 17669,
      "max": [
        0.9934958815574646,
        1.0
      ],
      "min": [
        0.0,
        0.2322635054588318
      ],
      "type": "VEC2"
    },
    {
      "bufferView": 0,
      "byteOffset": 6203868,
      "componentType": 5125,
      "count": 102153,
      "type": "SCALAR"
    },
    {
      "bufferView": 2,
      "byteOffset": 6715128,
      "componentType": 5126,
      "count": 8304,
      "max": [
        9508.5400390625,
        1302.558837890625,
        9401.3037109375
      ],
      "min": [
        -11003.43359375,
        220.44122314453125,
        -6192.11669921875
      ],
      "type": "VEC3"
    },
    {
      "bufferView": 2,
      "byteOffset": 6814776,
      "componentType": 5126,
      "count": 8304,
      "max": [
        1.0,
        0.8944272994995117,
        1.0
      ],
      "min": [
        -1.0,
        -0.9970545172691345,
        -1.0
      ],
      "type": "VEC3"
    },
    {
      "bufferView": 3,
      "componentType": 5126,
      "count": 8304,
      "max": [
        1.0,
        1.0,
        1.0,
        1.0
      ],
      "min": [
        0.0,
        0.0,
        0.0,
        1.0
      ],
      "type": "VEC4"
    },
    {
      "bufferView": 0,
      "byteOffset": 6612480,
      "componentType": 5125,
      "count": 48516,
      "type": "SCALAR"
    }
  ],
  "asset": {
    "extras": {
      "author": "WVU Volcanology and Petrology Lab (https://sketchfab.com/WVUpetrology)",
      "license": "CC-BY-NC-SA-4.0 (http://creativecommons.org/licenses/by-nc-sa/4.0/)",
      "source": "https://sketchfab.com/3d-models/kirishimayama-volc-complex-kyushu-japan-x2-144d2ca2254c4f37a64722d501df366b",
      "title": "Kirishimayama volc. complex, Kyushu, Japan (x2)"
    },
    "generator": "Sketchfab-12.65.0",
    "version": "2.0"
  },
  "bufferViews": [
    {
      "buffer": 0,
      "byteLength": 6806544,
      "name": "floatBufferViews",
      "target": 34963
    },
    {
      "buffer": 0,
      "byteLength": 2238376,
      "byteOffset": 6806544,
      "byteStride": 8,
      "name": "floatBufferViews",
      "target": 34962
    },
    {
      "buffer": 0,
      "byteLength": 6914424,
      "byteOffset": 9044920,
      "byteStride": 12,
      "name": "floatBufferViews",
      "target": 34962
    },
    {
      "buffer": 0,
      "byteLength": 132864,
      "byteOffset": 15959344,
      "byteStride": 16,
      "name": "floatBufferViews",
      "target": 34962
    }
  ],
  "buffers": [
    {
      "byteLength": 16092208,
      "uri": "scene.bin"
    }
  ],
  "images": [
    {
      "uri": "textures/TerrainNodeMaterial_baseColor.jpeg"
    }
  ],
  "materials": [
    {
      "doubleSided": true,
      "name": "TerrainNodeMaterial",
      "pbrMetallicRoughness": {
        "baseColorTexture": {
          "index": 0
        },
        "metallicFactor": 0.15,
        "roughnessFactor": 0.85
      }
    },
    {
      "doubleSided": true,
      "name": "AdornmentsMaterial",
      "pbrMetallicRoughness": {
        "metallicFactor": 0.0
      }
    }
  ],
  "meshes": [
    {
      "name": "Object_0",
      "primitives": [
        {
          "attributes": {
            "NORMAL": 1,
            "POSITION": 0,
            "TEXCOORD_0": 2
          },
          "indices": 3,
          "material": 0,
          "mode": 4
        }
      ]
    },
    {
      "name": "Object_1",
      "primitives": [
        {
          "attributes": {
            "NORMAL": 5,
            "POSITION": 4,
            "TEXCOORD_0": 6
          },
          "indices": 7,
          "material": 0,
          "mode": 4
        }
      ]
    },
    {
      "name": "Object_2",
      "primitives": [
        {
          "attributes": {
            "NORMAL": 9,
            "POSITION": 8,
            "TEXCOORD_0": 10
          },
          "indices": 11,
          "material": 0,
          "mode": 4
        }
      ]
    },
    {
      "name": "Object_3",
      "primitives": [
        {
          "attributes": {
            "NORMAL": 13,
            "POSITION": 12,
            "TEXCOORD_0": 14
          },
          "indices": 15,
          "material": 0,
          "mode": 4
        }
      ]
    },
    {
      "name": "Object_4",
      "primitives": [
        {
          "attributes": {
            "NORMAL": 17,
            "POSITION": 16,
            "TEXCOORD_0": 18
          },
          "indices": 19,
          "material": 0,
          "mode": 4
        }
      ]
    },
    {
      "name": "Object_5",
      "primitives": [
        {
          "attributes": {
            "COLOR_0": 22,
            "NORMAL": 21,
            "POSITION": 20
          },
          "indices": 23,
          "material": 1,
          "mode": 4
        }
      ]
    }
  ],
  "nodes": [
    {
      "children": [
        1
      ],
      "matrix": [
        1.0,
        0.0,
        0.0,
        0.0,
        0.0,
        2.220446049250313e-16,
        -1.0,
        0.0,
        0.0,
        1.0,
        2.220446049250313e-16,
        0.0,
        0.0,
        0.0,
        0.0,
        1.0
      ],
      "name": "Sketchfab_model"
    },
    {
      "children": [
        2
      ],
      "name": "root"
    },
    {
      "children": [
        3,
        9
      ],
      "matrix": [
        1.0,
        0.0,
        0.0,
        0.0,
        0.0,
        2.220446049250313e-16,
        1.0,
        0.0,
        0.0,
        -1.0,
        2.220446049250313e-16,
        0.0,
        0.0,
        0.0,
        0.0,
        1.0
      ],
      "name": "GLTF_SceneRootNode"
    },
    {
      "children": [
        4,
        5,
        6,
        7,
        8
      ],
      "name": "TerrainNode_0"
    },
    {
      "mesh": 0,
      "name": "Object_4"
    },
    {
      "mesh": 1,
      "name": "Object_5"
    },
    {
      "mesh": 2,
      "name": "Object_6"
    },
    {
      "mesh": 3,
      "name": "Object_7"
    },
    {
      "mesh": 4,
      "name": "Object_8"
    },
    {
      "children": [
        10
      ],
      "name": "Adornments_1"
    },
    {
      "mesh": 5,
      "name": "Object_10"
    }
  ],
  "samplers": [
    {
      "magFilter": 9729,
      "minFilter": 9987,
      "wrapS": 10497,
      "wrapT": 10497
    }
  ],
  "scene": 0,
  "scenes": [
    {
      "name": "Sketchfab_Scene",
      "nodes": [
        0
      ]
    }
  ],
  "textures": [
    {
      "sampler": 0,
      "source": 0
    }
  ]
}
